<mxfile host="app.diagrams.net" agent="Mozilla/5.0 (Windows NT 10.0; Win64; x64) AppleWebKit/537.36 (KHTML, like Gecko) Chrome/134.0.0.0 YaBrowser/25.4.0.0 Safari/537.36" version="27.0.9">
  <diagram name="Страница — 1" id="_MOnXPSjXEACmp8cNqA2">
    <mxGraphModel dx="1042" dy="580" grid="1" gridSize="10" guides="1" tooltips="1" connect="1" arrows="1" fold="1" page="1" pageScale="1" pageWidth="827" pageHeight="1169" math="0" shadow="0">
      <root>
        <mxCell id="0" />
        <mxCell id="1" parent="0" />
        <mxCell id="G8zeOIaCOUAw6-y_pPGK-3" value="" style="edgeStyle=orthogonalEdgeStyle;rounded=0;orthogonalLoop=1;jettySize=auto;html=1;" edge="1" parent="1" source="G8zeOIaCOUAw6-y_pPGK-1" target="G8zeOIaCOUAw6-y_pPGK-2">
          <mxGeometry relative="1" as="geometry" />
        </mxCell>
        <mxCell id="G8zeOIaCOUAw6-y_pPGK-1" value="DATA_.xlsm" style="rounded=0;whiteSpace=wrap;html=1;" vertex="1" parent="1">
          <mxGeometry x="320" y="130" width="120" height="30" as="geometry" />
        </mxCell>
        <mxCell id="G8zeOIaCOUAw6-y_pPGK-5" style="edgeStyle=orthogonalEdgeStyle;rounded=0;orthogonalLoop=1;jettySize=auto;html=1;exitX=0.25;exitY=1;exitDx=0;exitDy=0;entryX=0.5;entryY=0;entryDx=0;entryDy=0;" edge="1" parent="1" source="G8zeOIaCOUAw6-y_pPGK-2" target="G8zeOIaCOUAw6-y_pPGK-4">
          <mxGeometry relative="1" as="geometry" />
        </mxCell>
        <mxCell id="G8zeOIaCOUAw6-y_pPGK-7" style="edgeStyle=orthogonalEdgeStyle;rounded=0;orthogonalLoop=1;jettySize=auto;html=1;exitX=0.75;exitY=1;exitDx=0;exitDy=0;entryX=0.5;entryY=0;entryDx=0;entryDy=0;" edge="1" parent="1" source="G8zeOIaCOUAw6-y_pPGK-2" target="G8zeOIaCOUAw6-y_pPGK-6">
          <mxGeometry relative="1" as="geometry" />
        </mxCell>
        <mxCell id="G8zeOIaCOUAw6-y_pPGK-2" value="main.py" style="rounded=0;whiteSpace=wrap;html=1;" vertex="1" parent="1">
          <mxGeometry x="325" y="205" width="110" height="40" as="geometry" />
        </mxCell>
        <mxCell id="G8zeOIaCOUAw6-y_pPGK-4" value="AutocadWork.py" style="rounded=0;whiteSpace=wrap;html=1;" vertex="1" parent="1">
          <mxGeometry x="250" y="320" width="130" height="40" as="geometry" />
        </mxCell>
        <mxCell id="G8zeOIaCOUAw6-y_pPGK-6" value="TeklaWork.py" style="rounded=0;whiteSpace=wrap;html=1;" vertex="1" parent="1">
          <mxGeometry x="400" y="320" width="120" height="40" as="geometry" />
        </mxCell>
        <mxCell id="G8zeOIaCOUAw6-y_pPGK-28" style="edgeStyle=orthogonalEdgeStyle;rounded=0;orthogonalLoop=1;jettySize=auto;html=1;exitX=1;exitY=0.25;exitDx=0;exitDy=0;entryX=0;entryY=0.5;entryDx=0;entryDy=0;" edge="1" parent="1" source="G8zeOIaCOUAw6-y_pPGK-13" target="G8zeOIaCOUAw6-y_pPGK-2">
          <mxGeometry relative="1" as="geometry">
            <mxPoint x="310" y="230" as="targetPoint" />
          </mxGeometry>
        </mxCell>
        <mxCell id="G8zeOIaCOUAw6-y_pPGK-13" value="Classes.py" style="swimlane;fontStyle=0;childLayout=stackLayout;horizontal=1;startSize=30;horizontalStack=0;resizeParent=1;resizeParentMax=0;resizeLast=0;collapsible=1;marginBottom=0;whiteSpace=wrap;html=1;" vertex="1" parent="1">
          <mxGeometry x="60" y="180" width="130" height="90" as="geometry" />
        </mxCell>
        <mxCell id="G8zeOIaCOUAw6-y_pPGK-14" value="Class Wall" style="text;strokeColor=none;fillColor=none;align=left;verticalAlign=middle;spacingLeft=4;spacingRight=4;overflow=hidden;points=[[0,0.5],[1,0.5]];portConstraint=eastwest;rotatable=0;whiteSpace=wrap;html=1;" vertex="1" parent="G8zeOIaCOUAw6-y_pPGK-13">
          <mxGeometry y="30" width="130" height="30" as="geometry" />
        </mxCell>
        <mxCell id="G8zeOIaCOUAw6-y_pPGK-15" value="Class Walls" style="text;strokeColor=none;fillColor=none;align=left;verticalAlign=middle;spacingLeft=4;spacingRight=4;overflow=hidden;points=[[0,0.5],[1,0.5]];portConstraint=eastwest;rotatable=0;whiteSpace=wrap;html=1;" vertex="1" parent="G8zeOIaCOUAw6-y_pPGK-13">
          <mxGeometry y="60" width="130" height="30" as="geometry" />
        </mxCell>
        <mxCell id="G8zeOIaCOUAw6-y_pPGK-26" style="edgeStyle=orthogonalEdgeStyle;rounded=0;orthogonalLoop=1;jettySize=auto;html=1;exitX=1;exitY=0.25;exitDx=0;exitDy=0;entryX=0;entryY=0.5;entryDx=0;entryDy=0;" edge="1" parent="1" source="G8zeOIaCOUAw6-y_pPGK-22" target="G8zeOIaCOUAw6-y_pPGK-4">
          <mxGeometry relative="1" as="geometry" />
        </mxCell>
        <mxCell id="G8zeOIaCOUAw6-y_pPGK-22" value="Functions.py" style="swimlane;fontStyle=0;childLayout=stackLayout;horizontal=1;startSize=30;horizontalStack=0;resizeParent=1;resizeParentMax=0;resizeLast=0;collapsible=1;marginBottom=0;whiteSpace=wrap;html=1;" vertex="1" parent="1">
          <mxGeometry x="60" y="310" width="140" height="120" as="geometry" />
        </mxCell>
        <mxCell id="G8zeOIaCOUAw6-y_pPGK-23" value="def GetSizePoint" style="text;strokeColor=none;fillColor=none;align=left;verticalAlign=middle;spacingLeft=4;spacingRight=4;overflow=hidden;points=[[0,0.5],[1,0.5]];portConstraint=eastwest;rotatable=0;whiteSpace=wrap;html=1;" vertex="1" parent="G8zeOIaCOUAw6-y_pPGK-22">
          <mxGeometry y="30" width="140" height="30" as="geometry" />
        </mxCell>
        <mxCell id="G8zeOIaCOUAw6-y_pPGK-24" value="def GetRecSize" style="text;strokeColor=none;fillColor=none;align=left;verticalAlign=middle;spacingLeft=4;spacingRight=4;overflow=hidden;points=[[0,0.5],[1,0.5]];portConstraint=eastwest;rotatable=0;whiteSpace=wrap;html=1;" vertex="1" parent="G8zeOIaCOUAw6-y_pPGK-22">
          <mxGeometry y="60" width="140" height="30" as="geometry" />
        </mxCell>
        <mxCell id="G8zeOIaCOUAw6-y_pPGK-25" value="def GetStringPoint" style="text;strokeColor=none;fillColor=none;align=left;verticalAlign=middle;spacingLeft=4;spacingRight=4;overflow=hidden;points=[[0,0.5],[1,0.5]];portConstraint=eastwest;rotatable=0;whiteSpace=wrap;html=1;" vertex="1" parent="G8zeOIaCOUAw6-y_pPGK-22">
          <mxGeometry y="90" width="140" height="30" as="geometry" />
        </mxCell>
      </root>
    </mxGraphModel>
  </diagram>
</mxfile>
